<svg xmlns="http://www.w3.org/2000/svg" viewBox="0 0 922.32 732.41"><defs><style>.cls-1,.cls-6{fill:#e9df07;}.cls-2,.cls-3{fill:#141414;}.cls-3{font-size:126.68px;font-family:Jost-Medium, "Jost*";font-weight:500;}.cls-4{font-family:Jost-Bold, "Jost*";font-weight:700;}.cls-5{font-family:Jost-Black, "Jost*";font-weight:800;}.cls-6{font-size:37.96px;font-family:JosefinSans-Regular, Josefin Sans;}.cls-7{font-size:36.55px;}</style></defs><g id="Layer_2" data-name="Layer 2"><g id="Layer_1-2" data-name="Layer 1"><path class="cls-1" d="M424.11,149.73c2,71.13-53.63,125-117.45,128.39C234.73,281.91,178,225.84,175.17,159.66,172.15,88.91,227,31,297.17,29.19,364.71,27.4,422.28,82.13,424.11,149.73Zm-205,3.67c-.23,44,35.88,80.71,79.84,80.81a80.37,80.37,0,0,0,3-160.7C256.35,72.27,219.68,108.68,219.12,153.4Z"/><path class="cls-1" d="M201.34,320.82c7.3,10.16,13.79,20.19,21.33,29.35,5.73,7,6.54,12.32,2.45,21.21-12.22,26.56-5.72,51.61,11.07,74.09,19.15,25.63,53.29,37,83.24,28.78,32.32-8.86,55.07-34.71,59.81-67.17,2.32-15.94-.44-30.3-10.27-43.23-1.62-2.12-3.11-3.1-5.82-3.08-18.79.12-37.58.07-56.37.07h-5.67V322.41h5.18c28,0,56.08,0,84.13-.06a8.7,8.7,0,0,1,7,2.85c15.33,15.85,23.55,35,25.86,56.65,4,37.4-6.23,70.69-31.78,98.39-29.77,32.26-67.16,46-110.48,39-53.52-8.67-88-40.65-102.06-92.72-9.94-36.79-1.83-71.32,19.8-102.64C199.35,323,200.14,322.23,201.34,320.82Z"/><path class="cls-2" d="M423.77,58.92c-16.53,0-29.95-13.24-29.82-29.45A29.9,29.9,0,0,1,423.49,0c16.75-.06,30,12.81,30,29.19C453.46,46.29,440.86,58.91,423.77,58.92Z"/><path class="cls-1" d="M720.25,149.73c2,71.13-53.63,125-117.45,128.39-71.93,3.79-128.67-52.28-131.49-118.46-3-70.75,51.85-128.62,122-130.47C660.85,27.4,718.42,82.13,720.25,149.73Zm-205,3.67c-.23,44,35.88,80.71,79.84,80.81a80.37,80.37,0,0,0,3-160.7C552.49,72.27,515.82,108.68,515.26,153.4Z"/><path class="cls-1" d="M497.48,320.82c7.3,10.16,13.79,20.19,21.33,29.35,5.73,7,6.54,12.32,2.45,21.21C509,397.94,515.54,423,532.33,445.47c19.15,25.63,53.29,37,83.24,28.78,32.32-8.86,55.07-34.71,59.81-67.17,2.32-15.94-.44-30.3-10.27-43.23-1.62-2.12-3.11-3.1-5.82-3.08-18.79.12-37.58.07-56.37.07h-5.67V322.41h5.18c28,0,56.08,0,84.13-.06a8.7,8.7,0,0,1,7,2.85c15.33,15.85,23.55,35,25.86,56.65,4,37.4-6.23,70.69-31.78,98.39-29.76,32.26-67.16,46-110.48,39-53.52-8.67-88-40.65-102.06-92.72-9.94-36.79-1.83-71.32,19.8-102.64C495.49,323,496.28,322.23,497.48,320.82Z"/><path class="cls-2" d="M719.91,58.92c-16.53,0-29.95-13.24-29.82-29.45A29.9,29.9,0,0,1,719.63,0c16.75-.06,30,12.81,30,29.19C749.6,46.29,737,58.91,719.91,58.92Z"/><text class="cls-3" transform="translate(0 662.42) scale(1.19 1)">Go .. Go<tspan class="cls-4" x="395.24" y="0" xml:space="preserve">  </tspan><tspan class="cls-5" x="448.45" y="0">Grow</tspan></text><text class="cls-3" transform="translate(463.28 662.42) scale(1.19 1)">!</text><text class="cls-6" transform="translate(64.84 723.56) scale(1.19 1)">FOR MARKETING <tspan class="cls-7" x="334.56" y="0">&amp; DEVELOPMENT..</tspan></text></g></g></svg>